PathFileType	3	(X/Y/Z)	D:\Jess\PFP\Labelled\PA17\20250829\SRRun01.trc
DataRate	CameraRate	NumFrames	NumMarkers	Units	OrigDataRate	OrigDataStartFrame	OrigNumFrames
250.0	250.0	5	33	mm	250.0	35000	2501
Frame#	Time	C7			T10			CLAV			LSHO			RSHO			LASIS			RASIS			LPSIS			RPSIS			LILCR			RILCR			LGTR			LTHI			LLTHI			LLEP			LPSH			LLSH			LDSH			LLMAL			LTOE			L5TH			LHEE			RGTR			RTHI			RLTHI			RLEP			RPSH			RLSH			RDSH			RLMAL			RTOE			R5TH			RHEE			
		X1	Y1	Z1	X2	Y2	Z2	X3	Y3	Z3	X4	Y4	Z4	X5	Y5	Z5	X6	Y6	Z6	X7	Y7	Z7	X8	Y8	Z8	X9	Y9	Z9	X10	Y10	Z10	X11	Y11	Z11	X12	Y12	Z12	X13	Y13	Z13	X14	Y14	Z14	X15	Y15	Z15	X16	Y16	Z16	X17	Y17	Z17	X18	Y18	Z18	X19	Y19	Z19	X20	Y20	Z20	X21	Y21	Z21	X22	Y22	Z22	X23	Y23	Z23	X24	Y24	Z24	X25	Y25	Z25	X26	Y26	Z26	X27	Y27	Z27	X28	Y28	Z28	X29	Y29	Z29	X30	Y30	Z30	X31	Y31	Z31	X32	Y32	Z32	X33	Y33	Z33	

1	139.996	816.2372924745719	1467.801293355715	-1106.772414161115	797.4062446299876	1235.020125362872	-1035.401622054283	848.9740436795772	1369.47305952869	-1248.18142048616	664.8259670750328	1451.393129239316	-1202.486092050983	999.4409971267281	1418.310982237247	-1150.632958741583	708.4271989780563	938.5051395607883	-1238.804024019028	947.5319907421615	949.1263152408486	-1204.388898116738	785.9990466343866	1014.1348980628	-1023.742824784212	821.8643832948208	1014.483783370393	-1016.743832706402	650.4028560935799	1026.350904008001	-1178.36852596059	984.1448763002878	1031.464984687118	-1130.858986288556	628.0728125104621	878.421342481555	-1161.997390186383	711.5897529485474	681.1924047264899	-1238.90138957614	644.5512285214031	593.5048735112916	-1104.833007544463	656.4301945456385	455.0870349572335	-1074.707519538615	692.0177672382845	367.0148440372191	-1064.920277566312	662.824955905564	398.1692255636227	-896.1096868747504	686.9311270772753	296.8452226117566	-858.6508744023457	676.0179168948611	304.4156970006052	-734.3206655724402	618.1290676917275	169.9374684706178	-721.9885783560636	607.0315747061445	200.4298522560107	-686.8238944627138	743.6707180492547	331.6566630035304	-699.4328604117601	1020.543523395556	886.6871969311472	-1125.505038061846	914.9751849263454	746.9999505723018	-1290.221074108899	972.0549056958399	628.1721328663797	-1202.234164355802	925.266920875998	471.2696373754477	-1253.588293436615	859.2266209406596	407.1638114924986	-1291.004066516089	927.2305032537074	288.1710611423679	-1201.760128531982	874.7086168021003	208.8041407284522	-1225.167026795935	894.5576602663219	101.9103954711504	-1158.041172197652	890.54655305545	60.83983017442092	-1296.253722326074	928.9455842865966	40.03461987793255	-1260.137426808043	856.7229882659389	67.99842528069058	-1087.606657866205	
2	140	816.9406420577301	1466.845542245091	-1107.513259010226	798.6351912852473	1234.060700436962	-1034.711316222691	848.6234677725788	1367.540256117699	-1248.429560922154	664.6032750194396	1448.967488349692	-1201.662739025107	1000.193581300179	1416.355044939594	-1151.694449476687	708.6250444597146	934.6960363009093	-1237.684364542637	949.2428844863837	947.8166169342917	-1203.45790276449	783.7191260888449	1011.729425178413	-1022.903434869375	819.7005315527952	1012.899004318371	-1015.950229128956	650.4134919572124	1022.206960468147	-1177.341654041822	984.6624263239146	1030.415864829078	-1128.900057519381	628.0476288682954	874.7264667702849	-1162.518635766448	712.3063194942599	681.4118226301299	-1241.014378884674	643.5629265884011	592.3455716748048	-1108.680899943633	655.5706436383088	453.6959079933031	-1081.930723863741	691.2023284196796	365.6722587879725	-1072.458612141346	662.6136369889449	397.5797650288011	-903.579510315803	686.68241212048	296.6107917168752	-865.7647427687174	676.4174083177325	304.9482029396234	-741.4824370065727	616.9988985377381	171.2382968419223	-730.5941606211287	605.7733117918131	201.7256275008595	-695.5246025417047	744.0464434751476	331.2762882651489	-705.7802654043398	1020.854906503734	887.0529858260702	-1124.050266367334	916.4187485866264	745.333250056404	-1288.75614806046	972.0757038259145	626.4386127492692	-1200.213960045613	925.3555838711339	469.0733322036235	-1249.741572513585	860.0828546400627	404.4908552380253	-1286.694865571795	927.192364492604	287.2697092688113	-1194.928412955353	874.6370908617504	207.5427979937388	-1217.57203311301	894.4163593083238	102.0001678991858	-1148.55543315505	890.5795973335441	60.44669799035753	-1286.316440431219	928.9916361739697	39.90570642104716	-1250.12557641902	856.6908537340402	68.32349562828357	-1077.804704004327	
3	140.004	817.6353806242757	1465.889533724559	-1108.236439757478	799.8425796923718	1233.106008189356	-1034.025298681323	848.2791010074454	1365.619891563732	-1248.671549026204	664.3794969861315	1446.563970630167	-1200.853743520493	1000.938039561967	1414.414239846657	-1152.751453478307	708.8226391641612	930.9508640491032	-1236.580966940098	950.9108476551108	946.543892857893	-1202.539183947057	781.46805198982	1009.377056740094	-1022.084709802356	817.5611176236069	1011.34661196862	-1015.174742369436	650.4331575580496	1018.144552184417	-1176.310381134771	985.1538115539453	1029.401549102261	-1126.951247631163	628.0284562903668	871.1009179261052	-1163.01968246451	713.0275001685367	681.6133633778264	-1243.112534359223	642.5871094566482	591.1685012196065	-1112.502268060926	654.7153313877933	452.3070060374921	-1089.103422440546	690.3918918831718	364.3388548771269	-1079.935634035413	662.3986077671358	396.9972112902859	-910.9882576437157	686.4335264136043	296.3769335035005	-872.8171588461129	676.8070165755661	305.4712010062557	-748.5784180446495	615.886979334282	172.5077716110439	-739.1137920360824	604.5336617439162	202.9905280501586	-704.1333134516007	744.41138255281	330.9070636138291	-712.0700689284766	1021.148809757696	887.4139658803833	-1122.605611817662	917.8326537857756	743.6492311684958	-1287.310956025934	972.1068863508593	624.7090155681237	-1198.198216587017	925.4590402892791	466.8819053797931	-1245.917826850166	860.9370796100469	401.8330422849381	-1282.420507988341	927.1655740175208	286.3609940215388	-1188.170563046439	874.5755427187331	206.2859280717794	-1210.049485230874	894.2831003028173	102.0822915430776	-1139.159152739881	890.6167777414687	60.05674547677351	-1276.476812493076	929.0418191680232	39.77492981882367	-1240.211910417623	856.6636329644107	68.63809510949785	-1068.096033866203	
4	140.008	818.3163550271155	1464.951775398313	-1108.926359268771	801.0228512718887	1232.177950319904	-1033.351221110228	847.9315996183497	1363.746258571304	-1248.902366829497	664.1503145812774	1444.228309430357	-1200.048164716495	1001.658973067874	1412.525961836167	-1153.821563144123	709.0094858951189	927.3526496769067	-1235.501730227033	952.4876118875154	945.3437602469235	-1201.651509849914	779.2894954487871	1007.145044192605	-1021.300303535761	815.4867538414557	1009.873538607088	-1014.433240591559	650.4665046201117	1014.26226633165	-1175.261940389237	985.5961226710234	1028.463257308861	-1125.043774653122	628.0173248671238	867.6334266338612	-1163.46544047746	713.7467196928052	681.8199280322601	-1245.192726259388	641.6330144531123	589.9930683153724	-1116.308336789207	653.8757058063009	450.9573656280004	-1096.230469982059	689.601975697131	363.056796626387	-1087.360721081217	662.1839558822143	396.420951980247	-918.3411391192703	686.1969660549707	296.1296806561055	-879.8363296375038	677.1860160696878	305.9291460043402	-755.6329033653861	614.8312999021158	173.6758928489838	-747.592898189201	603.3475031680123	204.1412484530414	-712.6842335700891	744.7591385207551	330.5027777683911	-718.3257172599957	1021.41002297296	887.7682578019383	-1121.19100100016	919.1770254409255	741.9271493653595	-1285.864764643001	972.1523978631263	622.9947156235305	-1196.146102740332	925.5841224402446	464.7028877430786	-1242.061463127098	861.782087991872	399.2053599391305	-1278.130097626304	927.1562709163933	285.4456770841296	-1181.467930541603	874.5301299770616	205.042914158324	-1202.578254273192	894.1642297311262	102.1554747334641	-1129.845090353704	890.6605054241202	59.67460807917818	-1266.734601578216	929.0984663862446	39.64184402776978	-1230.396714413444	856.6444169948585	68.93780533171073	-1058.477151174821	
5	140.012	818.9791538925178	1464.051440901053	-1109.568685625694	802.1723203777614	1231.298503577174	-1032.696831347037	847.5709571562809	1361.95345236067	-1249.117542416876	663.9115098846036	1442.005341842269	-1199.233565177773	1002.341616679587	1410.727081778617	-1154.922686370894	709.1758408840182	923.9819827536771	-1234.452803615904	953.9281617852849	944.2486815582373	-1200.812834703854	777.2260985257313	1005.09532524747	-1020.561119399428	813.5173020758716	1008.5232648003	-1013.739184074882	650.5157238478655	1010.653771800734	-1174.185044906429	985.9686439733307	1027.638270162813	-1123.208478148514	628.016126829378	864.4068227491305	-1163.821884789752	714.4569290328941	682.056489564092	-1247.253149280487	640.7089130390275	588.8415821338	-1120.112008384804	653.0632885799727	449.6846198144559	-1103.320043869975	688.847789727597	361.8681674817624	-1094.747541306455	661.9742125974548	395.8501071700142	-925.6475813529452	685.9854968550541	295.8550358095034	-886.8549219771461	677.5545027979133	306.266985940519	-762.6749094714742	613.8687371604813	174.674695418865	-756.0838519450951	602.2483716160123	205.0963126230891	-721.2190188992603	745.0840474301452	330.0159695480363	-724.5745214796464	1021.624689729819	888.1138535684254	-1119.826346132604	920.4146304575891	740.1468555001074	-1284.394497085524	972.2157499881416	621.3079474861139	-1194.016932796952	925.7360891491562	462.5443240185234	-1238.116302172254	862.6100384363239	396.6219891905643	-1273.769990325258	927.1694344311729	284.5252514875542	-1174.796184219633	874.5059148770573	203.8228005712556	-1195.131659800241	894.0652818193379	102.2188371292189	-1120.599441347144	890.7128222677396	59.30472027607453	-1257.082406754036	929.1635753446348	39.50620429985575	-1220.673064689031	856.6356658317186	69.21858179733145	-1048.937666663927	
